<mxfile host="app.diagrams.net" modified="2022-07-07T15:06:23.652Z" agent="5.0 (Macintosh; Intel Mac OS X 10_15_7) AppleWebKit/537.36 (KHTML, like Gecko) Chrome/103.0.0.0 Safari/537.36" etag="R6NQuPdq1ztbsjEVUzoU" version="20.0.4" type="github">
  <diagram id="RmBV2kd7PLcIIxPIDa0L" name="第 1 页">
    <mxGraphModel dx="884" dy="1797" grid="1" gridSize="10" guides="1" tooltips="1" connect="1" arrows="1" fold="1" page="1" pageScale="1" pageWidth="827" pageHeight="1169" math="0" shadow="0">
      <root>
        <mxCell id="0" />
        <mxCell id="1" parent="0" />
        <mxCell id="9jdF6mw8jx_MrowWGyi2-1" value="" style="endArrow=none;html=1;rounded=0;strokeWidth=2;fillColor=#e51400;strokeColor=#B20000;" edge="1" parent="1">
          <mxGeometry width="50" height="50" relative="1" as="geometry">
            <mxPoint x="70" y="430" as="sourcePoint" />
            <mxPoint x="770" y="430" as="targetPoint" />
          </mxGeometry>
        </mxCell>
        <mxCell id="9jdF6mw8jx_MrowWGyi2-2" value="&lt;b&gt;User Space&lt;/b&gt;" style="text;html=1;align=center;verticalAlign=middle;resizable=0;points=[];autosize=1;strokeColor=none;fillColor=none;" vertex="1" parent="1">
          <mxGeometry x="70" y="400" width="90" height="30" as="geometry" />
        </mxCell>
        <mxCell id="9jdF6mw8jx_MrowWGyi2-3" value="&lt;font style=&quot;font-size: 12px;&quot;&gt;&lt;b&gt;Kernel Space&lt;/b&gt;&lt;/font&gt;" style="text;html=1;align=center;verticalAlign=middle;resizable=0;points=[];autosize=1;strokeColor=none;fillColor=none;" vertex="1" parent="1">
          <mxGeometry x="680" y="430" width="100" height="30" as="geometry" />
        </mxCell>
        <mxCell id="9jdF6mw8jx_MrowWGyi2-4" value="&lt;font style=&quot;font-size: 18px;&quot;&gt;&lt;b&gt;2 CPU Scheduler&lt;/b&gt;&lt;/font&gt;" style="rounded=1;whiteSpace=wrap;html=1;fontSize=12;fillColor=#e51400;fontColor=#ffffff;strokeColor=#B20000;" vertex="1" parent="1">
          <mxGeometry x="320" y="580" width="240" height="60" as="geometry" />
        </mxCell>
        <mxCell id="9jdF6mw8jx_MrowWGyi2-42" style="edgeStyle=orthogonalEdgeStyle;rounded=0;orthogonalLoop=1;jettySize=auto;html=1;entryX=1;entryY=0.5;entryDx=0;entryDy=0;dashed=1;fontSize=18;strokeWidth=2;" edge="1" parent="1" source="9jdF6mw8jx_MrowWGyi2-6" target="9jdF6mw8jx_MrowWGyi2-34">
          <mxGeometry relative="1" as="geometry" />
        </mxCell>
        <mxCell id="9jdF6mw8jx_MrowWGyi2-6" value="Logic Processer A" style="rounded=0;whiteSpace=wrap;html=1;fontSize=18;fillColor=#6a00ff;fontColor=#ffffff;strokeColor=#3700CC;" vertex="1" parent="1">
          <mxGeometry x="200" y="280" width="120" height="70" as="geometry" />
        </mxCell>
        <mxCell id="9jdF6mw8jx_MrowWGyi2-43" style="edgeStyle=orthogonalEdgeStyle;rounded=0;orthogonalLoop=1;jettySize=auto;html=1;dashed=1;fontSize=18;strokeWidth=2;" edge="1" parent="1" source="9jdF6mw8jx_MrowWGyi2-7">
          <mxGeometry relative="1" as="geometry">
            <mxPoint x="600" y="460" as="targetPoint" />
          </mxGeometry>
        </mxCell>
        <mxCell id="9jdF6mw8jx_MrowWGyi2-7" value="Logic Processer B" style="rounded=0;whiteSpace=wrap;html=1;fontSize=18;fillColor=#6a00ff;fontColor=#ffffff;strokeColor=#3700CC;" vertex="1" parent="1">
          <mxGeometry x="540" y="280" width="120" height="70" as="geometry" />
        </mxCell>
        <mxCell id="9jdF6mw8jx_MrowWGyi2-10" style="edgeStyle=orthogonalEdgeStyle;rounded=0;orthogonalLoop=1;jettySize=auto;html=1;entryX=0;entryY=0.5;entryDx=0;entryDy=0;fontSize=18;strokeWidth=2;" edge="1" parent="1" source="9jdF6mw8jx_MrowWGyi2-9" target="9jdF6mw8jx_MrowWGyi2-6">
          <mxGeometry relative="1" as="geometry" />
        </mxCell>
        <mxCell id="9jdF6mw8jx_MrowWGyi2-9" value="&lt;b&gt;G1&lt;/b&gt;" style="ellipse;whiteSpace=wrap;html=1;aspect=fixed;fontSize=18;fillColor=#60a917;fontColor=#ffffff;strokeColor=#2D7600;" vertex="1" parent="1">
          <mxGeometry x="70" y="275" width="80" height="80" as="geometry" />
        </mxCell>
        <mxCell id="9jdF6mw8jx_MrowWGyi2-12" style="edgeStyle=orthogonalEdgeStyle;rounded=0;orthogonalLoop=1;jettySize=auto;html=1;entryX=1;entryY=0.5;entryDx=0;entryDy=0;fontSize=18;strokeWidth=2;" edge="1" parent="1" source="9jdF6mw8jx_MrowWGyi2-11" target="9jdF6mw8jx_MrowWGyi2-7">
          <mxGeometry relative="1" as="geometry" />
        </mxCell>
        <mxCell id="9jdF6mw8jx_MrowWGyi2-11" value="&lt;b&gt;G6&lt;/b&gt;" style="ellipse;whiteSpace=wrap;html=1;aspect=fixed;fontSize=18;fillColor=#60a917;fontColor=#ffffff;strokeColor=#2D7600;" vertex="1" parent="1">
          <mxGeometry x="710" y="275" width="80" height="80" as="geometry" />
        </mxCell>
        <mxCell id="9jdF6mw8jx_MrowWGyi2-19" style="edgeStyle=orthogonalEdgeStyle;rounded=0;orthogonalLoop=1;jettySize=auto;html=1;exitX=0.5;exitY=1;exitDx=0;exitDy=0;entryX=0.5;entryY=0;entryDx=0;entryDy=0;fontSize=18;strokeWidth=2;dashed=1;fillColor=#60a917;strokeColor=#2D7600;" edge="1" parent="1" source="9jdF6mw8jx_MrowWGyi2-13" target="9jdF6mw8jx_MrowWGyi2-6">
          <mxGeometry relative="1" as="geometry" />
        </mxCell>
        <mxCell id="9jdF6mw8jx_MrowWGyi2-13" value="&lt;b&gt;G4&lt;/b&gt;" style="ellipse;whiteSpace=wrap;html=1;aspect=fixed;fontSize=18;fillColor=#60a917;fontColor=#ffffff;strokeColor=#2D7600;" vertex="1" parent="1">
          <mxGeometry x="220" y="170" width="80" height="80" as="geometry" />
        </mxCell>
        <mxCell id="9jdF6mw8jx_MrowWGyi2-18" style="edgeStyle=orthogonalEdgeStyle;rounded=0;orthogonalLoop=1;jettySize=auto;html=1;entryX=0.5;entryY=0;entryDx=0;entryDy=0;fontSize=18;strokeWidth=2;dashed=1;fillColor=#60a917;strokeColor=#2D7600;" edge="1" parent="1" source="9jdF6mw8jx_MrowWGyi2-14" target="9jdF6mw8jx_MrowWGyi2-13">
          <mxGeometry relative="1" as="geometry" />
        </mxCell>
        <mxCell id="9jdF6mw8jx_MrowWGyi2-14" value="&lt;b&gt;G3&lt;/b&gt;" style="ellipse;whiteSpace=wrap;html=1;aspect=fixed;fontSize=18;fillColor=#60a917;fontColor=#ffffff;strokeColor=#2D7600;" vertex="1" parent="1">
          <mxGeometry x="220" y="60" width="80" height="80" as="geometry" />
        </mxCell>
        <mxCell id="9jdF6mw8jx_MrowWGyi2-17" style="edgeStyle=orthogonalEdgeStyle;rounded=0;orthogonalLoop=1;jettySize=auto;html=1;entryX=0.5;entryY=0;entryDx=0;entryDy=0;fontSize=18;strokeWidth=2;dashed=1;fillColor=#60a917;strokeColor=#2D7600;" edge="1" parent="1" source="9jdF6mw8jx_MrowWGyi2-15" target="9jdF6mw8jx_MrowWGyi2-14">
          <mxGeometry relative="1" as="geometry" />
        </mxCell>
        <mxCell id="9jdF6mw8jx_MrowWGyi2-15" value="&lt;b&gt;G2&lt;/b&gt;" style="ellipse;whiteSpace=wrap;html=1;aspect=fixed;fontSize=18;fillColor=#60a917;fontColor=#ffffff;strokeColor=#2D7600;" vertex="1" parent="1">
          <mxGeometry x="220" y="-50" width="80" height="80" as="geometry" />
        </mxCell>
        <mxCell id="9jdF6mw8jx_MrowWGyi2-25" style="edgeStyle=orthogonalEdgeStyle;rounded=0;orthogonalLoop=1;jettySize=auto;html=1;exitX=0.5;exitY=1;exitDx=0;exitDy=0;entryX=0.5;entryY=0;entryDx=0;entryDy=0;dashed=1;fontSize=18;strokeWidth=2;fillColor=#60a917;strokeColor=#2D7600;" edge="1" parent="1" source="9jdF6mw8jx_MrowWGyi2-20" target="9jdF6mw8jx_MrowWGyi2-7">
          <mxGeometry relative="1" as="geometry" />
        </mxCell>
        <mxCell id="9jdF6mw8jx_MrowWGyi2-20" value="&lt;b&gt;G7&lt;/b&gt;" style="ellipse;whiteSpace=wrap;html=1;aspect=fixed;fontSize=18;fillColor=#60a917;fontColor=#ffffff;strokeColor=#2D7600;" vertex="1" parent="1">
          <mxGeometry x="560" y="170" width="80" height="80" as="geometry" />
        </mxCell>
        <mxCell id="9jdF6mw8jx_MrowWGyi2-21" style="edgeStyle=orthogonalEdgeStyle;rounded=0;orthogonalLoop=1;jettySize=auto;html=1;entryX=0.5;entryY=0;entryDx=0;entryDy=0;fontSize=18;strokeWidth=2;dashed=1;fillColor=#60a917;strokeColor=#2D7600;" edge="1" parent="1" source="9jdF6mw8jx_MrowWGyi2-22" target="9jdF6mw8jx_MrowWGyi2-20">
          <mxGeometry relative="1" as="geometry" />
        </mxCell>
        <mxCell id="9jdF6mw8jx_MrowWGyi2-22" value="&lt;b&gt;G8&lt;/b&gt;" style="ellipse;whiteSpace=wrap;html=1;aspect=fixed;fontSize=18;fillColor=#60a917;fontColor=#ffffff;strokeColor=#2D7600;" vertex="1" parent="1">
          <mxGeometry x="560" y="60" width="80" height="80" as="geometry" />
        </mxCell>
        <mxCell id="9jdF6mw8jx_MrowWGyi2-23" style="edgeStyle=orthogonalEdgeStyle;rounded=0;orthogonalLoop=1;jettySize=auto;html=1;entryX=0.5;entryY=0;entryDx=0;entryDy=0;fontSize=18;strokeWidth=2;dashed=1;fillColor=#60a917;strokeColor=#2D7600;" edge="1" parent="1" source="9jdF6mw8jx_MrowWGyi2-24" target="9jdF6mw8jx_MrowWGyi2-22">
          <mxGeometry relative="1" as="geometry" />
        </mxCell>
        <mxCell id="9jdF6mw8jx_MrowWGyi2-24" value="&lt;b&gt;G9&lt;/b&gt;" style="ellipse;whiteSpace=wrap;html=1;aspect=fixed;fontSize=18;fillColor=#60a917;fontColor=#ffffff;strokeColor=#2D7600;" vertex="1" parent="1">
          <mxGeometry x="560" y="-50" width="80" height="80" as="geometry" />
        </mxCell>
        <mxCell id="9jdF6mw8jx_MrowWGyi2-26" value="&lt;b&gt;G10&lt;/b&gt;" style="ellipse;whiteSpace=wrap;html=1;aspect=fixed;fontSize=18;fillColor=#60a917;fontColor=#ffffff;strokeColor=#2D7600;" vertex="1" parent="1">
          <mxGeometry x="240" y="-240" width="80" height="80" as="geometry" />
        </mxCell>
        <mxCell id="9jdF6mw8jx_MrowWGyi2-27" value="&lt;b&gt;G11&lt;/b&gt;" style="ellipse;whiteSpace=wrap;html=1;aspect=fixed;fontSize=18;fillColor=#60a917;fontColor=#ffffff;strokeColor=#2D7600;" vertex="1" parent="1">
          <mxGeometry x="340" y="-240" width="80" height="80" as="geometry" />
        </mxCell>
        <mxCell id="9jdF6mw8jx_MrowWGyi2-28" value="&lt;b&gt;G12&lt;/b&gt;" style="ellipse;whiteSpace=wrap;html=1;aspect=fixed;fontSize=18;fillColor=#60a917;fontColor=#ffffff;strokeColor=#2D7600;" vertex="1" parent="1">
          <mxGeometry x="440" y="-240" width="80" height="80" as="geometry" />
        </mxCell>
        <mxCell id="9jdF6mw8jx_MrowWGyi2-29" value="&lt;b&gt;G13&lt;/b&gt;" style="ellipse;whiteSpace=wrap;html=1;aspect=fixed;fontSize=18;fillColor=#60a917;fontColor=#ffffff;strokeColor=#2D7600;" vertex="1" parent="1">
          <mxGeometry x="540" y="-240" width="80" height="80" as="geometry" />
        </mxCell>
        <mxCell id="9jdF6mw8jx_MrowWGyi2-30" value="" style="shape=curlyBracket;whiteSpace=wrap;html=1;rounded=1;fontSize=18;rotation=-90;strokeWidth=2;" vertex="1" parent="1">
          <mxGeometry x="420" y="-330" width="20" height="380" as="geometry" />
        </mxCell>
        <mxCell id="9jdF6mw8jx_MrowWGyi2-32" style="edgeStyle=orthogonalEdgeStyle;rounded=0;orthogonalLoop=1;jettySize=auto;html=1;entryX=0.5;entryY=0;entryDx=0;entryDy=0;dashed=1;fontSize=18;strokeWidth=2;" edge="1" parent="1" source="9jdF6mw8jx_MrowWGyi2-31" target="9jdF6mw8jx_MrowWGyi2-15">
          <mxGeometry relative="1" as="geometry" />
        </mxCell>
        <mxCell id="9jdF6mw8jx_MrowWGyi2-33" style="edgeStyle=orthogonalEdgeStyle;rounded=0;orthogonalLoop=1;jettySize=auto;html=1;entryX=0.5;entryY=0;entryDx=0;entryDy=0;dashed=1;fontSize=18;strokeWidth=2;" edge="1" parent="1" source="9jdF6mw8jx_MrowWGyi2-31" target="9jdF6mw8jx_MrowWGyi2-24">
          <mxGeometry relative="1" as="geometry" />
        </mxCell>
        <mxCell id="9jdF6mw8jx_MrowWGyi2-31" value="" style="sketch=0;pointerEvents=1;shadow=0;dashed=0;html=1;strokeColor=none;labelPosition=center;verticalLabelPosition=bottom;verticalAlign=top;outlineConnect=0;align=center;shape=mxgraph.office.security.lock_protected;fillColor=#DA4026;fontSize=18;" vertex="1" parent="1">
          <mxGeometry x="411" y="-120" width="38" height="52" as="geometry" />
        </mxCell>
        <mxCell id="9jdF6mw8jx_MrowWGyi2-34" value="" style="triangle;whiteSpace=wrap;html=1;fontSize=18;strokeWidth=2;rotation=-90;fillColor=#fa6800;fontColor=#000000;strokeColor=#C73500;" vertex="1" parent="1">
          <mxGeometry x="230" y="460" width="60" height="80" as="geometry" />
        </mxCell>
        <mxCell id="9jdF6mw8jx_MrowWGyi2-35" value="" style="triangle;whiteSpace=wrap;html=1;fontSize=18;strokeWidth=2;rotation=-90;fillColor=#fa6800;fontColor=#000000;strokeColor=#C73500;" vertex="1" parent="1">
          <mxGeometry x="570" y="460" width="60" height="80" as="geometry" />
        </mxCell>
        <mxCell id="9jdF6mw8jx_MrowWGyi2-40" style="edgeStyle=orthogonalEdgeStyle;rounded=0;orthogonalLoop=1;jettySize=auto;html=1;dashed=1;fontSize=18;strokeWidth=2;" edge="1" parent="1" source="9jdF6mw8jx_MrowWGyi2-38" target="9jdF6mw8jx_MrowWGyi2-4">
          <mxGeometry relative="1" as="geometry" />
        </mxCell>
        <mxCell id="9jdF6mw8jx_MrowWGyi2-38" value="T1" style="text;html=1;strokeColor=none;fillColor=none;align=center;verticalAlign=middle;whiteSpace=wrap;rounded=0;fontSize=18;" vertex="1" parent="1">
          <mxGeometry x="230" y="490" width="60" height="30" as="geometry" />
        </mxCell>
        <mxCell id="9jdF6mw8jx_MrowWGyi2-41" style="edgeStyle=orthogonalEdgeStyle;rounded=0;orthogonalLoop=1;jettySize=auto;html=1;dashed=1;fontSize=18;strokeWidth=2;" edge="1" parent="1" source="9jdF6mw8jx_MrowWGyi2-39">
          <mxGeometry relative="1" as="geometry">
            <mxPoint x="440" y="580" as="targetPoint" />
          </mxGeometry>
        </mxCell>
        <mxCell id="9jdF6mw8jx_MrowWGyi2-39" value="T2" style="text;html=1;strokeColor=none;fillColor=none;align=center;verticalAlign=middle;whiteSpace=wrap;rounded=0;fontSize=18;" vertex="1" parent="1">
          <mxGeometry x="570" y="490" width="60" height="30" as="geometry" />
        </mxCell>
      </root>
    </mxGraphModel>
  </diagram>
</mxfile>
